
<svg xmlns="http://www.w3.org/2000/svg" xml:space="preserve" width="8in" height="8in" style="shape-rendering:geometricPrecision; text-rendering:geometricPrecision; image-rendering:optimizeQuality; fill-rule:evenodd; clip-rule:evenodd"viewBox="0 0 8 8"xmlns:xlink="http://www.w3.org/1999/xlink"><defs><style type="text/css"><![CDATA[.fil1 {fill:black}.fil0 {fill:black;fill-rule:nonzero}]]></style></defs><g id="Layer_x0020_1"><metadata id="CorelCorpID_0Corel-Layer"/><path class="fil0" d="M2.39198 4.4856c0,-0.0451929 -0.0366378,-0.0818268 -0.0818268,-0.0818268 -0.045189,0 -0.0818268,0.0366339 -0.0818268,0.0818268l0 1.73183c0,0.045189 0.0366378,0.0818268 0.0818268,0.0818268 0.045189,0 0.0818268,-0.0366378 0.0818268,-0.0818268l0 -1.73183z"/><path class="fil0" d="M3.51644 4.39838c0,-0.045189 -0.0366378,-0.0818268 -0.0818268,-0.0818268 -0.045189,0 -0.0818268,0.0366378 -0.0818268,0.0818268l0 1.81905c0,0.045189 0.0366378,0.0818268 0.0818268,0.0818268 0.045189,0 0.0818268,-0.0366378 0.0818268,-0.0818268l0 -1.81905z"/><path class="fil0" d="M4.64091 4.07277c0,-0.0451929 -0.0366378,-0.0818268 -0.0818268,-0.0818268 -0.045189,0 -0.0818268,0.0366339 -0.0818268,0.0818268l0 2.14467c0,0.045189 0.0366378,0.0818268 0.0818268,0.0818268 0.045189,0 0.0818268,-0.0366378 0.0818268,-0.0818268l0 -2.14467z"/><path class="fil0" d="M5.76537 3.48077c0,-0.045189 -0.0366378,-0.0818268 -0.0818268,-0.0818268 -0.045189,0 -0.0818268,0.0366378 -0.0818268,0.0818268l0 2.73667c0,0.045189 0.0366378,0.0818268 0.0818268,0.0818268 0.045189,0 0.0818268,-0.0366378 0.0818268,-0.0818268l0 -2.73667z"/><path class="fil0" d="M1.52511 4.10631c-0.0450157,-0.00194094 -0.0830866,0.0329803 -0.0850276,0.0779921 -0.00194094,0.0450118 0.0329803,0.0830827 0.0779961,0.0850236 0.0081063,0.000370079 2.80328,0.156575 5.01602,-2.42573 0.0292992,-0.034248 0.0252953,-0.0857717 -0.00895276,-0.115071 -0.0342441,-0.0292992 -0.0857677,-0.0252913 -0.115067,0.00895276 -2.16033,2.52113 -4.8771,2.36919 -4.88497,2.36883z"/><path class="fil0" d="M5.03887 1.70106c-0.0450157,0 -0.0815079,0.0364961 -0.0815079,0.0815079 0,0.0450157 0.0364921,0.0815118 0.0815079,0.0815118l1.3578 3.93701e-006 3.93701e-006 1.3578c0,0.0450118 0.0364961,0.0815079 0.0815079,0.0815079 0.0450118,0 0.0815079,-0.0364961 0.0815079,-0.0815079 0,-0.479768 0.000314961,-0.959555 0.000314961,-1.43931 0,-0.045189 -0.0366378,-0.0818268 -0.0818268,-0.0818268l-1.43931 0.000314961z"/><path class="fil1" d="M4 0c2.20914,0 4,1.79086 4,4 0,2.20914 -1.79086,4 -4,4 -2.20914,0 -4,-1.79086 -4,-4 0,-2.20914 1.79086,-4 4,-4zm0 0.319996c2.03241,0 3.68,1.64759 3.68,3.68 0,2.03241 -1.64759,3.68 -3.68,3.68 -2.03241,0 -3.68,-1.64759 -3.68,-3.68 0,-2.03241 1.64759,-3.68 3.68,-3.68z"/></g></svg>
